<?xml version="1.0" encoding="iso-8859-1"?>
<!-- Generator: Adobe Illustrator 19.0.0, SVG Export Plug-In . SVG Version: 6.00 Build 0)  -->
<svg xmlns="http://www.w3.org/2000/svg" xmlns:xlink="http://www.w3.org/1999/xlink" version="1.1" id="Capa_1" x="0px" y="0px" viewBox="0 0 489.2 489.2" style="enable-background:new 0 0 489.2 489.2;" xml:space="preserve" width="512px" height="512px">
<g>
	<g>
		<path d="M279.7,297.55v-83.3c10.5-7,17.4-18.9,17.4-32.4v-86.4c0-43-34.8-77.8-77.8-77.8H210h-9.3c-43,0-77.8,34.8-77.8,77.8v86.4    c0,13.5,6.9,25.4,17.4,32.4v83.3c0,1.5-0.8,2.8-2.1,3.4c-9.8,4.8-52.1,26.2-97.2,59c-25.6,18.7-41,48.3-41,80v21.4    c0,5.5,4.5,10,10,10h91.8h12.9h190.5h17.4c-2.3-4.7-3.7-9.9-3.7-15.5v-85.3c0-12.8,6.7-24,16.9-30.3v-5.6c0-1.2,0.1-2.4,0.2-3.5    c-26.6-16.4-47.6-27-54.1-30.2C280.5,300.35,279.7,299.05,279.7,297.55z" fill="#999999"/>
		<path d="M473.7,355.15h-0.4v-20.4c0-32.4-26.3-58.7-58.7-58.7s-58.7,26.3-58.7,58.7v20.4h-1.3c-8.6,0-15.5,6.9-15.5,15.5v85.4    c0,8.6,6.9,15.5,15.5,15.5h119.1c8.6,0,15.5-6.9,15.5-15.5v-85.5C489.2,362.05,482.3,355.15,473.7,355.15z M423.4,417.05    c-1.2,0.9-1.5,1.7-1.5,3.1c0,6.3,0,12.5,0,18.8l0,0c0.1,2.6-1.2,5.1-3.5,6.3c-5.5,2.8-10.9-1.1-10.9-6.3l0,0c0-6.3,0-12.6,0-18.8    c0-1.3-0.3-2.1-1.4-3c-5.7-4.2-7.5-11.3-4.7-17.6c2.8-6.1,9.5-9.7,15.9-8.4c7.1,1.4,12,7.1,12.1,14.2    C429.3,410.25,427.3,414.25,423.4,417.05z M447.7,355.15h-66v-20.4c0-18.2,14.8-33,33-33s33,14.8,33,33V355.15z" fill="#999999"/>
	</g>
</g>
<g>
</g>
<g>
</g>
<g>
</g>
<g>
</g>
<g>
</g>
<g>
</g>
<g>
</g>
<g>
</g>
<g>
</g>
<g>
</g>
<g>
</g>
<g>
</g>
<g>
</g>
<g>
</g>
<g>
</g>
</svg>
