<?xml version="1.0" encoding="iso-8859-1"?>
<!-- Generator: Adobe Illustrator 19.0.0, SVG Export Plug-In . SVG Version: 6.00 Build 0)  -->
<svg xmlns="http://www.w3.org/2000/svg" xmlns:xlink="http://www.w3.org/1999/xlink" version="1.1" id="Layer_1" x="0px" y="0px" viewBox="0 0 512 512" style="enable-background:new 0 0 512 512;" xml:space="preserve" width="512px" height="512px">
<g>
	<g>
		<g>
			<path d="M362.794,370.325c-8.931-6.055-19.95-9.096-30.604-12.036c-2.325-0.642-4.642-1.281-6.912-1.948     c-13.034-3.832-21.392-11.394-22.359-20.232c-0.782-7.148,3.521-14.043,11.506-18.443c1.688-0.929,3.567-1.623,5.579-2.114     v15.866c0,5.89,4.775,10.667,10.667,10.667c5.89,0,10.667-4.777,10.667-10.667v-15.086c6.227,1.535,12.293,4.01,17.261,7.014     c5.04,3.052,11.598,1.439,14.648-3.602c3.05-5.04,1.438-11.598-3.602-14.649c-7.893-4.778-17.888-8.703-28.306-10.594v-7.668     c0-5.89-4.777-10.667-10.667-10.667c-5.891,0-10.667,4.777-10.667,10.667v7.022c-5.596,0.789-10.979,2.429-15.873,5.125     c-15.552,8.57-24.142,23.684-22.419,39.448c1.934,17.691,15.971,32.038,37.55,38.38c0.243,0.071,0.496,0.141,0.741,0.212v50.224     c-8.827-1.471-16.131-5.21-18.471-9.715c-2.713-5.229-9.15-7.268-14.379-4.556c-5.229,2.713-7.269,9.151-4.557,14.381     c6.487,12.504,21.537,19.548,37.406,21.346v11.135c0,5.89,4.775,10.667,10.667,10.667c5.89,0,10.667-4.777,10.667-10.667V447.93     c2.212-0.429,4.371-0.962,6.442-1.615c16.731-5.273,29.176-19.83,31.701-37.085C381.78,393.515,375.542,378.971,362.794,370.325z      M358.371,406.142c-1.348,9.214-8.022,16.996-17.004,19.826c-0.009,0.003-0.019,0.005-0.029,0.01v-42.602     c3.587,1.325,6.848,2.821,9.484,4.607C359.202,393.667,358.894,402.575,358.371,406.142z" fill="#999999"/>
			<path d="M330.671,234.668c-3.589,0-7.15,0.138-10.671,0.406V50.667c0-11.136-7.804-26.849-44.975-38.466     C249.847,4.334,216.573,0,181.333,0S112.82,4.334,87.641,12.201c-37.173,11.617-44.976,27.33-44.976,38.466v322.669     c0,11.135,7.803,26.848,44.976,38.464c25.179,7.868,58.453,12.202,93.692,12.202c6.717,0,13.434-0.169,20.065-0.489     C221.55,475.243,271.895,512,330.67,512c76.461,0,138.666-62.204,138.666-138.664     C469.337,296.874,407.132,234.668,330.671,234.668z M94.004,32.563c23.175-7.242,54.188-11.23,87.329-11.23     c33.139,0,64.154,3.988,87.329,11.23c24.492,7.654,30.005,15.84,30.005,18.104c0,2.265-5.513,10.45-30.005,18.105     c-23.175,7.241-54.188,11.229-87.329,11.229s-64.155-3.988-87.329-11.23C69.51,61.117,63.998,52.932,63.998,50.667     C63.998,48.404,69.51,40.218,94.004,32.563z M63.998,79.256c6.111,3.471,13.849,6.817,23.643,9.877     c25.179,7.868,58.453,12.201,93.692,12.201S249.847,97,275.025,89.134c9.794-3.06,17.531-6.406,23.642-9.877v25.191     c0,2.263-5.513,10.449-30.005,18.104c-23.176,7.241-54.188,11.229-87.329,11.229c-15.38,0-30.396-0.866-44.631-2.572     c-5.846-0.707-11.16,3.472-11.86,9.321c-0.701,5.849,3.472,11.16,9.321,11.86c15.074,1.807,30.944,2.724,47.171,2.724     c35.24,0,68.514-4.334,93.691-12.201c9.794-3.06,17.531-6.406,23.642-9.876v78.965c0,2.265-5.513,10.45-30.005,18.105     c-23.175,7.242-54.188,11.229-87.329,11.229c-33.141,0-64.156-3.987-87.329-11.229c-24.494-7.654-30.007-15.84-30.007-18.105     v-25.187c6.111,3.47,13.849,6.817,23.643,9.877c25.179,7.868,58.453,12.201,93.692,12.201c20.994,0,41.099-1.507,59.757-4.48     c5.819-0.926,9.784-6.394,8.857-12.211c-0.927-5.819-6.409-9.781-12.212-8.856c-17.305,2.756-36.808,4.213-56.402,4.213     c-33.139,0-64.155-3.988-87.329-11.23c-24.494-7.654-30.007-15.839-30.007-18.103V79.256z M181.333,402.669     c-33.139,0-64.155-3.988-87.329-11.23c-24.494-7.654-30.007-15.839-30.007-18.103v-25.19c6.111,3.47,13.849,6.817,23.643,9.877     c25.178,7.868,58.453,12.202,93.692,12.202c3.569,0,7.144-0.05,10.706-0.141c-0.025,1.084-0.039,2.166-0.039,3.252     c0,1.214,0.017,2.422,0.048,3.629c0.01,0.375,0.029,0.752,0.043,1.129c0.028,0.83,0.055,1.661,0.098,2.486     c0.023,0.455,0.059,0.91,0.086,1.363c0.046,0.743,0.09,1.489,0.146,2.229c0.039,0.502,0.09,1.003,0.134,1.503     c0.062,0.69,0.119,1.381,0.191,2.068c0.057,0.542,0.124,1.083,0.187,1.622c0.074,0.639,0.145,1.279,0.227,1.916     c0.076,0.59,0.163,1.179,0.247,1.766c0.082,0.577,0.162,1.156,0.252,1.731c0.101,0.644,0.211,1.286,0.321,1.929     c0.086,0.51,0.172,1.021,0.263,1.53c0.128,0.703,0.267,1.404,0.405,2.106c0.085,0.433,0.17,0.867,0.259,1.298     c0.053,0.261,0.101,0.526,0.158,0.789C190.511,402.589,185.922,402.669,181.333,402.669z M204.277,316.301     c-0.004,0.011-0.01,0.019-0.014,0.03c-0.375,0.833-0.74,1.669-1.1,2.51c-0.102,0.239-0.208,0.476-0.308,0.716     c-0.166,0.394-0.324,0.79-0.486,1.186c-3.658,8.89-6.424,18.237-8.172,27.934c-4.273,0.138-8.573,0.215-12.865,0.215     c-33.141,0-64.155-3.988-87.329-11.23c-24.494-7.654-30.007-15.84-30.007-18.104v-78.968h0.001     c6.111,3.47,13.849,6.817,23.643,9.877c25.178,7.867,58.452,12.201,93.692,12.201c28.082,0,54.901-2.759,77.383-7.858     c-12.521,7.61-23.87,17.207-33.529,28.512c-2.79,3.267-5.412,6.653-7.872,10.142c-11.6,1.092-23.705,1.649-35.982,1.649     c-15.38,0-30.396-0.866-44.631-2.572c-5.846-0.702-11.16,3.471-11.86,9.321c-0.701,5.849,3.472,11.16,9.321,11.86     c15.074,1.807,30.944,2.724,47.171,2.724c7.819,0,15.561-0.241,23.183-0.664C204.437,315.956,204.356,316.128,204.277,316.301z      M330.671,490.667c-52.551,0-97.143-34.724-112.037-82.43c-0.181-0.58-0.35-1.164-0.522-1.746     c-0.288-0.976-0.563-1.957-0.827-2.943c-0.176-0.662-0.347-1.326-0.512-1.99c-0.135-0.548-0.275-1.094-0.403-1.647     c-0.259-1.12-0.501-2.244-0.729-3.373c-0.093-0.461-0.179-0.924-0.267-1.387c-0.185-0.981-0.358-1.965-0.517-2.95     c-0.05-0.308-0.106-0.614-0.153-0.923c-0.194-1.255-0.362-2.515-0.514-3.777c-0.044-0.367-0.085-0.734-0.126-1.101     c-0.135-1.224-0.258-2.449-0.355-3.677c-0.009-0.108-0.019-0.214-0.028-0.322c-0.102-1.329-0.175-2.662-0.232-3.998     c-0.015-0.335-0.027-0.67-0.038-1.005c-0.047-1.352-0.078-2.705-0.078-4.062c0-1.627,0.044-3.244,0.109-4.855     c0.011-0.263,0.018-0.529,0.03-0.792c0.068-1.453,0.17-2.899,0.29-4.338c0.038-0.453,0.077-0.906,0.121-1.357     c0.122-1.278,0.266-2.55,0.427-3.815c0.089-0.685,0.188-1.365,0.288-2.046c0.091-0.625,0.193-1.247,0.293-1.869     c0.249-1.514,0.517-3.02,0.825-4.513c0.003-0.018,0.008-0.036,0.012-0.054c8.794-42.823,40.993-77.207,82.587-89.156     c0.171-0.048,0.339-0.098,0.509-0.146c0.962-0.271,1.932-0.53,2.905-0.779c1.11-0.279,2.227-0.548,3.352-0.797     c0.429-0.096,0.861-0.191,1.294-0.283c1.471-0.308,2.953-0.595,4.446-0.849c6.454-1.104,13.086-1.688,19.852-1.688     c64.696,0,117.332,52.637,117.332,117.335C448.003,438.032,395.367,490.667,330.671,490.667z" fill="#999999"/>
			<path d="M96.347,145.404c1.653,0.436,3.345,0.86,5.068,1.269c0.83,0.198,1.661,0.291,2.478,0.291     c4.826,0,9.202-3.299,10.368-8.201c1.363-5.73-2.177-11.482-7.908-12.845c-1.552-0.369-3.075-0.75-4.564-1.142     c-5.701-1.504-11.534,1.897-13.035,7.593C87.25,138.066,90.65,143.902,96.347,145.404z" fill="#999999"/>
			<path d="M269.65,197.847c1.008,0,2.035-0.145,3.05-0.447c2.098-0.625,4.212-1.298,6.284-2c5.579-1.891,8.569-7.948,6.677-13.528     c-1.891-5.579-7.948-8.568-13.528-6.677c-1.821,0.618-3.679,1.21-5.525,1.758c-5.646,1.682-8.859,7.622-7.178,13.268     C260.812,194.854,265.053,197.847,269.65,197.847z" fill="#999999"/>
			<path d="M106.346,287.25c-1.554-0.369-3.081-0.75-4.572-1.141c-5.691-1.491-11.53,1.911-13.025,7.611     c-1.494,5.697,1.913,11.529,7.611,13.024c1.652,0.433,3.341,0.854,5.061,1.263c0.828,0.196,1.657,0.29,2.471,0.29     c4.829,0,9.205-3.302,10.369-8.206C115.622,294.359,112.078,288.609,106.346,287.25z" fill="#999999"/>
		</g>
	</g>
</g>
<g>
</g>
<g>
</g>
<g>
</g>
<g>
</g>
<g>
</g>
<g>
</g>
<g>
</g>
<g>
</g>
<g>
</g>
<g>
</g>
<g>
</g>
<g>
</g>
<g>
</g>
<g>
</g>
<g>
</g>
</svg>
