<?xml version="1.0" encoding="utf-8"?>
<!DOCTYPE svg PUBLIC "-//W3C//DTD SVG 1.1//EN" "http://www.w3.org/Graphics/SVG/1.1/DTD/svg11.dtd">
<svg xmlns="http://www.w3.org/2000/svg" xmlns:xlink="http://www.w3.org/1999/xlink" version="1.1" viewBox="0 0 512 512" enable-background="new 0 0 512 512" width="512px" height="512px">
  <g>
    <g>
      <path d="m452.3,104.7h-72.3v-73.3c0-11.3-9.1-20.4-20.4-20.4h-207.2c-11.3,0-20.4,9.1-20.4,20.4v73.3h-72.3c-26.8,0-48.7,21.8-48.7,48.7v299c0,26.8 21.8,48.7 48.7,48.7h392.6c26.8,0 48.7-21.8 48.7-48.7v-299c0-26.9-21.8-48.7-48.7-48.7zm-279.5-52.9h166.5v52.8h-166.5v-52.8zm287.4,400.5c0,4.3-3.5,7.9-7.9,7.9h-392.6c-4.3,0-7.9-3.5-7.9-7.9v-299c0-4.3 3.5-7.9 7.9-7.9h392.6c4.3,0 7.9,3.5 7.9,7.9v299z" fill="#999999"/>
      <path d="m256,224.4c-27.9,0-50.6,22.7-50.6,50.6 0,20.6 12.4,38.4 30.2,46.3v60c0,11.3 9.1,20.4 20.4,20.4 11.3,0 20.4-9.1 20.4-20.4v-60c17.8-7.9 30.2-25.7 30.2-46.3 5.68434e-14-27.9-22.7-50.6-50.6-50.6zm0,40.8c5.4,0 9.8,4.4 9.8,9.8 0,5.4-4.4,9.8-9.8,9.8-5.4,0-9.8-4.4-9.8-9.8 0-5.4 4.4-9.8 9.8-9.8z" fill="#999999"/>
    </g>
  </g>
</svg>
