<svg xmlns="http://www.w3.org/2000/svg" viewBox="0 0 72 72"><defs><style>.cls-1{fill:#00c73c;}</style></defs><title>Asset 2</title><g id="Layer_2" data-name="Layer 2"><g id="Layer_1-2" data-name="Layer 1"><rect class="cls-1" x="20.39" y="22.78" width="3.27" height="4.82"/><path class="cls-1" d="M36,0A36,36,0,1,0,72,36,36,36,0,0,0,36,0ZM28.17,42.17,23.66,43.3V31H20.39v.28a3.7,3.7,0,0,1-.53,1.68,9.05,9.05,0,0,1-1.32,1.82,8.49,8.49,0,0,1-1.72,1.47,3.27,3.27,0,0,1-1.78.59H12.12a3.27,3.27,0,0,1-1.71-.51A6.25,6.25,0,0,1,8.87,35a7.68,7.68,0,0,1-1.13-1.65,3.68,3.68,0,0,1-.44-1.59V19.62a3.77,3.77,0,0,1,.51-1.68,8.88,8.88,0,0,1,3-3.29,3.53,3.53,0,0,1,1.8-.6h2.92a3.31,3.31,0,0,1,1.71.53A7.29,7.29,0,0,1,20,17.5a3.68,3.68,0,0,1,.44,1.59v.31h3.27V13.07h4.51Zm6.61.35-4.5,1.13V13.07h4.5Zm3.12-4.2a2.72,2.72,0,0,1-.58-1.56v-6a2.88,2.88,0,0,1,.7-1.64,10.47,10.47,0,0,1,1.71-1.76A12.28,12.28,0,0,1,41.86,26a4.36,4.36,0,0,1,2-.58h3.62a4.14,4.14,0,0,1,1.81.46A8.43,8.43,0,0,1,51.06,27a7,7,0,0,1,1.37,1.52A2.85,2.85,0,0,1,53,30.09v6a3.05,3.05,0,0,1-.65,1.67A10.76,10.76,0,0,1,48.67,41a4.22,4.22,0,0,1-1.92.57h-3.7A4.27,4.27,0,0,1,41.21,41a9.35,9.35,0,0,1-1.87-1.18A7.71,7.71,0,0,1,37.9,38.32ZM61.35,57h-5V47.53H40.8V44.16H57.94a1.9,1.9,0,0,1,.54.07,2,2,0,0,1,.55.24L61,45.85a1,1,0,0,1,.28.38,2.16,2.16,0,0,1,.1.78Zm4.3-22.42V38H61.18v4.4h-5V24.8h5v2.75h4.47v3.37H61.18v3.66Z"/><path class="cls-1" d="M15.11,17.43h-1.3a1.32,1.32,0,0,0-.74.27,3.37,3.37,0,0,0-.72.65,4.06,4.06,0,0,0-.55.82,1.92,1.92,0,0,0-.21.82V31.41a3.46,3.46,0,0,0,.27,1.4c.17.43.41.64.72.64h1.3a1.32,1.32,0,0,0,.74-.27,3.6,3.6,0,0,0,.72-.64,4,4,0,0,0,.55-.83,1.88,1.88,0,0,0,.21-.82V19.47a3.58,3.58,0,0,0-.27-1.41Q15.58,17.43,15.11,17.43Z"/><path class="cls-1" d="M43.9,38.17l1.48,0a1.87,1.87,0,0,0,.84-.28,5.16,5.16,0,0,0,1-.7,5.09,5.09,0,0,0,.78-.91,1.67,1.67,0,0,0,.31-.88v-4.8a1.66,1.66,0,0,0-.56-1.3,1.88,1.88,0,0,0-1.27-.49H44.92a1.76,1.76,0,0,0-.85.28,5.93,5.93,0,0,0-1,.7,5,5,0,0,0-.77.9,1.61,1.61,0,0,0-.32.86v4.79a1.77,1.77,0,0,0,.58,1.34A1.88,1.88,0,0,0,43.9,38.17Z"/></g></g></svg>