<?xml version="1.0" encoding="iso-8859-1"?>
<!-- Generator: Adobe Illustrator 19.0.0, SVG Export Plug-In . SVG Version: 6.00 Build 0)  -->
<svg version="1.1" id="Layer_1" xmlns="http://www.w3.org/2000/svg" xmlns:xlink="http://www.w3.org/1999/xlink" x="0px" y="0px"
	 viewBox="0 0 512.001 512.001" style="enable-background:new 0 0 512.001 512.001;" xml:space="preserve">
<path style="fill:#C2FB3B;" d="M282.02,69.822l-5.204-10.407c-2.295-4.589-5.99-8.184-10.412-10.397
	c-3.174-1.587-6.72-2.467-10.403-2.467s-7.228,0.88-10.403,2.467c-4.422,2.212-8.116,5.807-10.412,10.397l-5.204,10.407
	L32.161,465.456l0,0H58.18H84.2h56.569h26.019l0,0h26.02l0,0h63.194h63.194h26.02h26.019h56.571h26.02h26.019L282.02,69.822z"/>
<path style="fill:#A4E276;" d="M276.816,276.626c-3.942-7.885-11.999-12.865-20.815-12.865c-8.816,0-16.873,4.98-20.815,12.865
	L140.77,465.456h26.019h26.02h63.194h63.194h26.02h26.019L276.816,276.626z"/>
<path style="fill:#64C37D;" d="M245.599,49.018c3.174-1.587,6.72-2.467,10.403-2.467c3.683,0,7.228,0.88,10.403,2.467
	c4.422,2.212,8.116,5.807,10.412,10.397l5.205,10.407l18.067-36.136c5.748-11.497,1.089-25.476-10.408-31.224
	c-11.492-5.747-25.474-1.089-31.222,10.408l-2.458,4.915l-2.458-4.915c-5.747-11.495-19.73-16.156-31.222-10.408
	c-11.497,5.748-16.156,19.727-10.408,31.224l18.069,36.136l5.204-10.407C237.481,54.825,241.177,51.231,245.599,49.018z"/>
<path style="fill:#806749;" d="M488.727,512.001c12.853,0,23.273-10.418,23.273-23.273c0-12.854-10.42-23.273-23.273-23.273h-8.885
	h-26.019h-26.019h-56.571h-26.019h-26.02H256h-63.193h-26.02h-26.019H84.199h-26.02H32.16h-8.885
	c-12.853,0-23.273,10.418-23.273,23.273c0,12.854,10.42,23.273,23.273,23.273H46.54h108.609h201.702h108.608H488.727z"/>
<path style="fill:#9CDD05;" d="M84.199,465.456h56.571l94.417-188.831c3.942-7.885,11.999-12.865,20.815-12.865V46.55
	c-3.683,0-7.228,0.88-10.403,2.467c-4.422,2.212-8.116,5.807-10.412,10.397l-5.204,10.407L32.161,465.455H58.18h26.019V465.456z"/>
<path style="fill:#64C37D;" d="M235.186,276.626l-94.418,188.831h26.019h26.02h63.194V263.76
	C247.186,263.76,239.129,268.741,235.186,276.626z"/>
<g>
</g>
<g>
</g>
<g>
</g>
<g>
</g>
<g>
</g>
<g>
</g>
<g>
</g>
<g>
</g>
<g>
</g>
<g>
</g>
<g>
</g>
<g>
</g>
<g>
</g>
<g>
</g>
<g>
</g>
</svg>
